{"title":"Super 8 (2011) DVDRip NL subs DutchReleaseTeam [Mysterie&amp;Sci","uid":6763412,"size":737612756,"categoryP":"video","categoryS":"movies","magnet":"?xt=urn:btih:28357aa32f58a1b4e1236fe3de05ebbea237bbbc&amp;dn=Super+8+%282011%29+DVDRip+NL+subs+DutchReleaseTeam+%5BMysterie%26amp%3BSci&amp;tr=udp%3A%2F%2Ftracker.openbittorrent.com%3A80&amp;tr=udp%3A%2F%2Fopen.demonii.com%3A1337&amp;tr=udp%3A%2F%2Ftracker.coppersurfer.tk%3A6969&amp;tr=udp%3A%2F%2Fexodus.desync.com%3A6969","seeders":1,"leechers":0,"uploader":"Koedje","files":-1,"time":1319277639,"description":" &lt;a href=&quot;http://img405.imageshack.us/img405/7381/super8c.jpg&quot; rel=&quot;nofollow&quot; target=&quot;_NEW&quot;&gt;http://img405.imageshack.us/img405/7381/super8c.jpg&lt;/a&gt;\n\n\nVerenigde Staten\nSciencefiction\n112 minuten\n\ngeregisseerd door J.J. Abrams\nmet Joel Courtney, Elle Fanning en Kyle Chandler\n\nIn de zomer van 1979 sluit de Amerikaanse Luchtmacht een sectie van Area 51. Alle materialen worden per trein vervoerd naar een opslagplaats in Ohio. De trein wordt echter aangereden door een truck en ontspoort. Een groepje kinderen, dat bezig is om hun eigen zombie-film te maken met hun 'Super 8' camera, stuit op de ravage. Al snel wordt vermoed dat het niet om een ongeluk gaat, als er plotseling verdwijningen plaatsvinden en onverklaarbare dingen gebeuren. Een lokale sheriff probeert het mysterie te ontrafelen, maar wil hij de angstaanjagende en onmenselijke waarheid wel weten?\n\n\nVertaald door Simply ReleaseS Toppers\nWinchester Girl, Heksje en Jesprulin\n\n\n\n\n\n\nScreenshots:\n &lt;a href=&quot;\nhttp://img580.imageshack.us/img580/8686/screenshot1rd.jpg&quot; rel=&quot;nofollow&quot; target=&quot;_NEW&quot;&gt;\nhttp://img580.imageshack.us/img580/8686/screenshot1rd.jpg&lt;/a&gt;\n &lt;a href=&quot;\nhttp://img833.imageshack.us/img833/5469/screenshot2oep.jpg&quot; rel=&quot;nofollow&quot; target=&quot;_NEW&quot;&gt;\nhttp://img833.imageshack.us/img833/5469/screenshot2oep.jpg&lt;/a&gt;\n &lt;a href=&quot;\nhttp://img804.imageshack.us/img804/452/screenshot3d.jpg&quot; rel=&quot;nofollow&quot; target=&quot;_NEW&quot;&gt;\nhttp://img804.imageshack.us/img804/452/screenshot3d.jpg&lt;/a&gt;\n &lt;a href=&quot;\nhttp://img11.imageshack.us/img11/8193/screenshot4hd.jpg&quot; rel=&quot;nofollow&quot; target=&quot;_NEW&quot;&gt;\nhttp://img11.imageshack.us/img11/8193/screenshot4hd.jpg&lt;/a&gt;\n\n\n\n\n\nINFO;\n\nVideo\nID                                       : 0\nFormat                                   : MPEG-4 Visual\nFormat profile                           : Advanced Simple@L5\nFormat settings, BVOP                    : 1\nFormat settings, QPel                    : No\nFormat settings, GMC                     : No warppoints\nFormat settings, Matrix                  : Custom\nCodec ID                                 : XVID\nCodec ID/Hint                            : XviD\nDuration                                 : 1h 51mn\nBit rate                                 : 749 Kbps\nWidth                                    : 608 pixels\nHeight                                   : 256 pixels\nDisplay aspect ratio                     : 2.40:1\nFrame rate                               : 23.976 fps\nColor space                              : YUV\nChroma subsampling                       : 4:2:0\nBit depth                                : 8 bits\nScan type                                : Progressive\nCompression mode                         : Lossy\nBits/(Pixel*Frame)                       : 0.201\nStream size                              : 599 MiB (86%)\nWriting library                          : XviD 64\n\nAudio\nID                                       : 1\nFormat                                   : MPEG Audio\nFormat version                           : Version 1\nFormat profile                           : Layer 3\nMode                                     : Joint stereo\nMode extension                           : MS Stereo\nCodec ID                                 : 55\nCodec ID/Hint                            : MP3\nDuration                                 : 1h 51mn\nBit rate mode                            : Variable\nBit rate                                 : 114 Kbps\nNominal bit rate                         : 128 Kbps\nChannel(s)                               : 2 channels\nSampling rate                            : 48.0 KHz\nCompression mode                         : Lossy\nStream size                              : 91.3 MiB (13%)\nAlignment                                : Aligned on interleaves\nInterleave, duration                     : 24 ms (0.58 video frame)\nInterleave, preload duration             : 161 ms\nWriting library                          : LAME3.98r\n\n\n\n &lt;a href=&quot;\nhttp://www.imdb.com/title/tt1650062/&quot; rel=&quot;nofollow&quot; target=&quot;_NEW&quot;&gt;\nhttp://www.imdb.com/title/tt1650062/&lt;/a&gt; &lt;a href=&quot;\nhttp://www.moviemeter.nl/film/70202&quot; rel=&quot;nofollow&quot; target=&quot;_NEW&quot;&gt;\nhttp://www.moviemeter.nl/film/70202&lt;/a&gt;\n\n\n\n\nDeze film wordt u aangeboden door het DutchReleaseTeam.\nVoor de reviews van de nieuwste films, muziek, series, games etc\nga dan eens naar http://www.hetmultimediacafe.be\n\nDutchReleaseteam = Hardcoded Dutch Subs","torrent":{"xt":"urn:btih:28357aa32f58a1b4e1236fe3de05ebbea237bbbc","amp;dn":"Super+8+%282011%29+DVDRip+NL+subs+DutchReleaseTeam+%5BMysterie%26amp%3BSci","amp;tr":["udp%3A%2F%2Ftracker.openbittorrent.com%3A80","udp%3A%2F%2Fopen.demonii.com%3A1337","udp%3A%2F%2Ftracker.coppersurfer.tk%3A6969","udp%3A%2F%2Fexodus.desync.com%3A6969"],"infoHash":"28357aa32f58a1b4e1236fe3de05ebbea237bbbc","infoHashBuffer":{"type":"Buffer","data":[40,53,122,163,47,88,161,180,225,35,111,227,222,5,235,190,162,55,187,188]},"announce":[],"urlList":[]}}